<?xml version="1.0" standalone="no"?>
<svg xmlns:xlink="http://www.w3.org/1999/xlink" id="wave" style="transform:rotate(0deg); transition: 0.3s" viewBox="0 0 1440 490" version="1.1" xmlns="http://www.w3.org/2000/svg"><defs><linearGradient id="sw-gradient-0" x1="0" x2="0" y1="1" y2="0"><stop stop-color="rgba(225, 184, 48, 1)" offset="0%"/><stop stop-color="rgba(225, 184, 48, 1)" offset="100%"/></linearGradient></defs><path style="transform:translate(0, 0px); opacity:1" fill="url(#sw-gradient-0)" d="M0,196L48,163.3C96,131,192,65,288,98C384,131,480,261,576,310.3C672,359,768,327,864,261.3C960,196,1056,98,1152,57.2C1248,16,1344,33,1440,73.5C1536,114,1632,180,1728,212.3C1824,245,1920,245,2016,228.7C2112,212,2208,180,2304,212.3C2400,245,2496,343,2592,367.5C2688,392,2784,343,2880,318.5C2976,294,3072,294,3168,294C3264,294,3360,294,3456,285.8C3552,278,3648,261,3744,253.2C3840,245,3936,245,4032,269.5C4128,294,4224,343,4320,367.5C4416,392,4512,392,4608,343C4704,294,4800,196,4896,130.7C4992,65,5088,33,5184,49C5280,65,5376,131,5472,138.8C5568,147,5664,98,5760,89.8C5856,82,5952,114,6048,155.2C6144,196,6240,245,6336,253.2C6432,261,6528,229,6624,179.7C6720,131,6816,65,6864,32.7L6912,0L6912,490L6864,490C6816,490,6720,490,6624,490C6528,490,6432,490,6336,490C6240,490,6144,490,6048,490C5952,490,5856,490,5760,490C5664,490,5568,490,5472,490C5376,490,5280,490,5184,490C5088,490,4992,490,4896,490C4800,490,4704,490,4608,490C4512,490,4416,490,4320,490C4224,490,4128,490,4032,490C3936,490,3840,490,3744,490C3648,490,3552,490,3456,490C3360,490,3264,490,3168,490C3072,490,2976,490,2880,490C2784,490,2688,490,2592,490C2496,490,2400,490,2304,490C2208,490,2112,490,2016,490C1920,490,1824,490,1728,490C1632,490,1536,490,1440,490C1344,490,1248,490,1152,490C1056,490,960,490,864,490C768,490,672,490,576,490C480,490,384,490,288,490C192,490,96,490,48,490L0,490Z"/></svg>